<?xml version="1.0" encoding="utf-8"?>
<!-- Generator: Adobe Illustrator 21.1.0, SVG Export Plug-In . SVG Version: 6.00 Build 0)  -->
<svg version="1.1" id="レイヤー_1" xmlns="http://www.w3.org/2000/svg" xmlns:xlink="http://www.w3.org/1999/xlink" x="0px"
	 y="0px" viewBox="0 0 98.4 187" style="enable-background:new 0 0 98.4 187;" xml:space="preserve">
<style type="text/css">
	.st0{fill:#FFFFFF;}
</style>
<g>
	<path class="st0" d="M0,90c0-10.9,0-21.5,0-32.4c8.5,0,16.9,0,25.8,0c0-3,0.1-5.6,0-8.3c-0.5-10,1.1-19.6,5.6-28.5
		C36.9,9.9,45.7,3.5,57.9,1.6c12.4-2,24.9-1.8,37.4-1.3c0.9,0,1.7,0.2,2.8,0.4c0,10.4,0,20.8,0,31.7c-2.6,0-5.3,0-7.9,0
		c-2.7,0-5.4,0-8.1,0.1c-5.7,0.1-10.4,3.5-12.3,9.2C68,46.8,68,52,68.4,57.6c10,0,19.8,0,29.7,0c0.1,0.9,0.2,1.6,0.2,2.3
		c0,9.2-0.1,18.4,0.1,27.6c0,2.1-0.6,2.6-2.7,2.6c-8.1-0.1-16.2,0-24.2,0c-0.9,0-1.9,0-3.2,0c0,32.4,0,64.6,0,96.9
		c-14.2,0-28,0-42.2,0c0-1.2,0-2.3,0-3.4c0-29.8,0-59.6,0-89.4c0-4.7,0.5-4.1-4.2-4.1C14.5,90,7.4,90,0,90z"/>
</g>
</svg>
