<?xml version="1.0" encoding="utf-8"?>
<!-- Generator: Adobe Illustrator 22.1.0, SVG Export Plug-In . SVG Version: 6.00 Build 0)  -->
<svg version="1.1" id="レイヤー_1" xmlns="http://www.w3.org/2000/svg" xmlns:xlink="http://www.w3.org/1999/xlink" x="0px"
	 y="0px" viewBox="0 0 89.9 57.1" style="enable-background:new 0 0 89.9 57.1;" xml:space="preserve">
<style type="text/css">
	.st0{fill:#FFFFFF;}
</style>
<g>
	<g>
		<g>
			<path class="st0" d="M28.6,22.9v11.3c0,0,11,0,15.4,0c-2.4,7.3-6.2,11.3-15.4,11.3c-9.4,0-16.7-7.6-16.7-17s7.3-17,16.7-17
				c5,0,8.2,1.7,11.1,4.2c2.3-2.3,2.2-2.7,8.1-8.3C42.7,2.8,36,0,28.6,0C12.8,0,0,12.8,0,28.6s12.8,28.6,28.6,28.6
				C52.2,57.2,57.9,36.7,56,23C50.4,22.9,28.6,22.9,28.6,22.9z M80,23.5v-9.9h-7v9.9H62.8v7.1H73v10.2h7V30.5h9.9v-7.1H80V23.5z"/>
		</g>
	</g>
</g>
</svg>
