<?xml version="1.0" encoding="utf-8"?>
<!-- Generator: Adobe Illustrator 22.1.0, SVG Export Plug-In . SVG Version: 6.00 Build 0)  -->
<svg version="1.1" id="レイヤー_1" xmlns="http://www.w3.org/2000/svg" xmlns:xlink="http://www.w3.org/1999/xlink" x="0px"
	 y="0px" viewBox="0 0 201.8 192.6" style="enable-background:new 0 0 201.8 192.6;" xml:space="preserve">
<style type="text/css">
	.st0{fill:#00C300;}
</style>
<g>
	<path class="st0" d="M201.8,81.4c0,7.5-1.3,14.8-3.7,21.9c-1.8,5.2-4.2,10.1-7.2,14.6c-2.5,3.8-5.3,7.5-8.2,11
		c-3.1,3.6-6.5,7-9.9,10.4c-2.5,2.4-5.1,4.7-7.8,7c-3.5,3-7.1,5.9-10.7,8.8c-3.7,3-7.4,5.9-11.3,8.7c-5.2,3.8-10.5,7.5-15.9,11
		c-5.8,3.7-11.7,7.2-17.6,10.7c-3.4,2-6.8,3.8-10.3,5.6c-1.2,0.6-2.6,1.3-4,1.4c-3.6,0.3-5.1-1.9-4.4-5.4c0.4-2.1,1.5-4,2-6
		c0.8-3,1.5-6,1.9-9c0.3-2,0.2-4,0-6c-0.1-1.6-2-3.1-3.6-3.2c-7.6-0.6-15.2-1.8-22.6-3.9c-4.9-1.4-9.8-3.2-14.6-5.1
		c-3.8-1.5-7.5-3.4-11.1-5.4c-3.7-2.1-7.2-4.4-10.6-6.9c-3.8-3-7.5-6.1-10.9-9.6c-4.5-4.5-8.4-9.6-11.6-15.2
		c-2.9-5-5.3-10.2-6.9-15.8c-0.9-3.2-1.5-6.4-2.1-9.7c-1-4.7-0.8-9.5-0.6-14.2C0.3,74,0.8,70.9,1.5,68c1-4,2-8,3.6-11.8
		c1.5-3.7,3.4-7.3,5.5-10.7s4.6-6.6,7-9.8c0.5-0.7,1-1.3,1.6-1.8c2.5-2.5,4.9-5,7.5-7.3c2.4-2.1,4.9-4.1,7.5-6
		c2.7-1.9,5.4-3.8,8.3-5.4c3.7-2.1,7.5-4,11.4-5.7C58,7.7,62.3,6.2,66.6,5c4.6-1.3,9.4-2.4,14.1-3.2c3.7-0.7,7.4-1,11.2-1.3
		C96,0.1,100.1,0,104.1,0c3.5,0.1,7,0.4,10.4,0.8c3.8,0.5,7.5,1,11.3,1.7c3.2,0.6,6.3,1.4,9.4,2.3c7.2,2,14,4.8,20.6,8.3
		c5.3,2.8,10.5,6,15.2,9.9c2.3,1.8,4.4,3.8,6.6,5.7c5.9,5.4,10.8,11.6,14.8,18.5c3.7,6.3,6.4,13.1,7.7,20.3c0.6,3,0.9,6,1.3,9
		C201.7,78.3,201.7,79.9,201.8,81.4z M118.5,85.3c-0.1,0-0.2,0.1-0.3,0.1c-1.5-2.1-3-4.3-4.6-6.4c-5.1-7-10.3-14-15.5-21
		c-1.1-1.5-2.7-2.3-4.6-2.2c-2.8,0.3-4.9,2.5-5,5.4c0,13.1,0,26.2,0,39.3c0,2.2,1.1,3.7,2.9,4.8c2.9,1.8,7.6-0.6,7.6-4.5
		c0-7.8,0-15.5,0-23.3c0-0.4,0-0.8,0-1.4c0.3,0.3,0.5,0.5,0.6,0.7c1.9,2.5,3.7,5.1,5.6,7.6c3.7,5,7.4,10.1,11.1,15.1
		c1.3,1.7,2.6,3.4,4,4.9c1,1.1,2.3,1.7,3.8,1.4c3-0.5,4.8-2.4,4.8-5.6c0-12.9,0-25.7,0-38.6c0-0.6-0.1-1.3-0.2-1.9
		c-0.6-2.5-3.1-4.3-5.3-4.1c-3,0.3-4.9,2.4-4.9,5.2c0,7.7,0,15.5,0,23.2C118.5,84.6,118.5,84.9,118.5,85.3z M146.6,66.2
		c4.9,0,9.7-0.1,14.5,0c2.5,0,5.3-2.2,5.3-5.1c0-3-2.1-5.4-5.2-5.4c-6.6-0.1-13.2-0.1-19.9,0c-3,0-5.2,2.3-5.2,5.3
		c0,13.2,0,26.4,0,39.6c0,0.4,0.1,0.8,0.1,1.3c0.5,2.7,3.4,4,5.5,4c6.3,0,12.6,0,18.9,0c2.2,0,4-0.8,5.1-2.8c1-1.7,1-3.5-0.1-5.1
		c-0.9-1.5-2.2-2.5-4.1-2.5c-4.6,0-9.2,0-13.8,0c-0.4,0-0.8,0-1.1,0c0-3.2,0-6.3,0-9.4c0.5,0,0.9,0,1.2,0c4.4,0,8.9,0.1,13.4,0
		c3.5-0.1,5.5-2.9,5.2-5.6c-0.3-3.2-2.7-4.9-5.6-4.8c-4.3,0-8.7,0-13,0c-0.4,0-0.8,0-1.1,0C146.6,72.5,146.6,69.4,146.6,66.2z
		 M45.8,95.5c0-0.6,0-1,0-1.4c0-11,0-22.1,0-33.1c0-1-0.4-2.1-0.9-2.9c-1-1.8-3.6-2.6-5.3-2.1c-3,0.7-4.2,3-4.2,5
		c0,13.3,0,26.6,0,39.9c0,2.6,2.5,5.3,5.4,5.3c6.4,0,12.8,0,19.2,0c0.7,0,1.4,0,2-0.2c2.4-0.8,4.1-2.8,3.8-6c-0.2-2-2.8-4.4-4.9-4.3
		c-4.6,0.1-9.1,0-13.7,0C46.7,95.5,46.3,95.5,45.8,95.5z M81.1,81c0-6.6,0-13.1,0-19.7c0-0.7,0-1.4-0.3-2.1c-1-2.5-3.3-3.8-5.6-3.5
		c-2.8,0.4-4.5,2.7-4.5,5.1c0,13.3,0,26.6,0,40c0,0.4,0.1,0.8,0.2,1.2c0.9,2.9,3.1,4.2,6.1,3.7c2.2-0.4,4.2-2.4,4.1-5.3
		C81.1,94,81.1,87.5,81.1,81z"/>
</g>
</svg>
