<?xml version="1.0" encoding="utf-8"?>
<!-- Generator: Adobe Illustrator 22.1.0, SVG Export Plug-In . SVG Version: 6.00 Build 0)  -->
<svg version="1.1" id="レイヤー_1" xmlns="http://www.w3.org/2000/svg" xmlns:xlink="http://www.w3.org/1999/xlink" x="0px"
	 y="0px" viewBox="0 0 63.8 57" style="enable-background:new 0 0 63.8 57;" xml:space="preserve">
<style type="text/css">
	.st0{fill:#FFFFFF;}
</style>
<g>
	<path class="st0" d="M32,0c8.6,0,17.2,0,25.8,0c0.7,0,1.3,0,1.9,0.2c2,0.7,3.3,2,3.9,4c0.1,0.4,0.1,0.8,0.2,1.2c0,0.2,0,0.4,0,0.6
		c0,5.6,0,11.1,0,16.7c0,1.6,0,3.1-0.1,4.7c-0.1,2-0.4,4-0.9,6c-1.2,4.4-3.2,8.4-6.2,11.9c-3.5,4.2-7.8,7.3-12.9,9.4
		c-1.5,0.6-3.1,1.1-4.7,1.5c-1.4,0.3-2.7,0.5-4.1,0.7c-1.8,0.2-3.6,0.2-5.4,0c-2.5-0.2-5-0.7-7.5-1.5c-4.6-1.5-8.7-4-12.2-7.3
		c-3.1-2.9-5.5-6.3-7.2-10.1c-1.1-2.5-1.9-5.2-2.3-7.9c-0.1-1-0.2-2.1-0.3-3.1C0,25.5,0,24.1,0,22.7c0-5.6,0-11.2,0-16.7
		C0,5,0.2,4.1,0.6,3.2C1.5,1.4,3,0.4,5,0C5.4,0,5.7,0,6.1,0C12,0,17.8,0,23.7,0C26.5,0,29.2,0,32,0z M32,29
		c-0.1-0.1-0.2-0.2-0.3-0.3c-3.1-3-6.2-5.9-9.3-8.9c-0.8-0.8-1.6-1.6-2.4-2.3c-1.2-1.1-2.7-1.5-4.3-1c-3.1,0.9-4.1,4.9-1.9,7.2
		c0.1,0.1,0.2,0.2,0.3,0.3c3.1,3,6.2,6,9.3,8.9c1.8,1.7,3.6,3.4,5.4,5.2c1.8,1.7,4.5,1.7,6.2,0c0.1-0.1,0.2-0.2,0.3-0.2
		c3.4-3.3,6.8-6.6,10.3-9.8c1.5-1.4,2.9-2.8,4.4-4.2c1.2-1.1,1.6-2.5,1.3-4.1c-0.4-2.2-2.6-3.9-5.2-3.4c-0.8,0.2-1.5,0.6-2.2,1.2
		c-1.3,1.3-2.6,2.5-4,3.8c-2.5,2.4-5,4.8-7.6,7.2C32.2,28.8,32.1,28.9,32,29z"/>
</g>
</svg>
