<?xml version="1.0" encoding="utf-8"?>
<!-- Generator: Adobe Illustrator 22.1.0, SVG Export Plug-In . SVG Version: 6.00 Build 0)  -->
<svg version="1.1" id="レイヤー_1" xmlns="http://www.w3.org/2000/svg" xmlns:xlink="http://www.w3.org/1999/xlink" x="0px"
	 y="0px" viewBox="0 0 227.5 158.9" style="enable-background:new 0 0 227.5 158.9;" xml:space="preserve">
<style type="text/css">
	.st0{fill:#FFFFFF;}
</style>
<path class="st0" d="M0,116.2c2,1.3,4,2.6,6,3.9c23.8,14.7,52.9,12.3,74-6.1c0.8-0.7,1.6-1.5,2.7-2.5c-2.3-0.2-4.2,0-5.9-0.5
	c-2.6-0.9-5.3-2-7.3-3.7c-4.2-3.6-3.9-8.8,0.4-12.4c1.3-1.1,2.8-2.1,4.6-3.4c-1.9,0.1-3.3,0.4-4.6,0.3c-7.4-0.4-13.5-3.6-18.6-8.7
	c-3.9-3.9-3.7-6.4,1-9.2c2.5-1.5,5.6-2.1,8.4-3.1c-0.5-0.2-1.3-0.6-2.1-0.9c-6.4-2.7-12.4-5.9-16.7-11.5c-1.6-2-2.7-4.5-3.6-6.9
	c-1-2.6-0.6-3.2,2.3-3.8c3.1-0.7,6.2-1,9.5-1.6c-10.6-6.3-17.2-15-17.3-27.9c13.7,4.6,26.9,10,39.8,16.2s25.4,12.9,36.3,23
	c1.6-4,3.1-7.7,4.6-11.3c4.9-11.7,10.4-23.1,18.6-33c2.8-3.3,6.2-6.2,9.4-9.2c0.5-0.5,1.3-0.8,2.6-1.6c-0.5,1.9-0.8,3.1-1.2,4.9
	c5.1-3.1,9.4-7,15.6-7c-0.2,2.9-2,4.4-3.6,6.4c1.3-0.4,2.6-0.8,3.9-1.1c2.6-0.6,5.1-1.2,7.7-1.5c0.7-0.1,2.1,0.5,2.3,1.1
	c0.2,0.8-0.1,2.3-0.7,2.7c-2,1.4-4.2,2.7-6.4,3.6c-2.9,1.1-6,1.8-9,3.1c1.6,0.2,3.3,0.5,4.9,0.7c13,2,23,8.9,30.9,19.2
	c5.2,6.8,9.7,14.1,10.8,22.9c0.2,1.7,1.5,1.9,2.7,2.1c7.6,1.6,15.2,1.7,22.7-0.2c0.4-0.1,0.9-0.1,1.6-0.3
	c-5.1,8.7-13.6,10.3-22.1,12.2c7.5,2.6,15.2,3,23,2.3c0.1,0.3,0.2,0.5,0.3,0.8c-2.6,1.9-5.1,3.9-7.8,5.5c-4.7,2.8-9.9,3.8-15.4,3.7
	c-3.9-0.1-3.9,0-4.9,3.8c-4,14.9-11.7,27.7-22.8,38.4c-17.8,17.1-38.6,28.4-63.3,31.7c-19.7,2.6-39.4,2.9-58.7-3.2
	c-15.6-4.9-29.8-12.7-41.8-23.9C8.2,125.8,4.2,120.8,0,116.2L0,116.2z"/>
</svg>
